<svg xmlns="http://www.w3.org/2000/svg" viewBox="0 0 300.87 387.89"><defs><style>.cls-1{fill:#fff;}</style></defs><g id="Layer_2" data-name="Layer 2"><g id="Layer_1-2" data-name="Layer 1"><path class="cls-1" d="M299.19,208.84h0l-1.76-24.68a12.27,12.27,0,0,0-12.18-11.38l-123.44-.43a12.26,12.26,0,0,0-12.3,12.21l2.65,53.32a12.25,12.25,0,0,0,12.21,12.3l58.56.21c-.55,21.08-4.57,35.59-12.25,44.22-7,7.93-19.29,12.85-36.41,14.63h0c-2.47.25-5,.44-7.52.56-32.57,1.52-54.62-3.7-67.39-16-6.24-6-11-14.29-14.47-25.34l0-.08c-4.93-15.62-7.22-36.37-7-63.44.28-36.47,2.16-73.41,13.91-96.61C102,88.08,119.68,78.69,149,77.89c22.79-.62,39.83,4.38,50.64,14.86q.73.72,1.44,1.47l0,0c10.2,10.16,13.59,25.32,14.69,35.49a12.24,12.24,0,0,0,12,10.91l53.61.61a12.25,12.25,0,0,0,12.37-13.05c-1.33-20.1-8.13-59.31-39.17-90.53C228.41,11.29,191.93-1.14,146.89.08c-61.62,1.68-106,29.8-128.36,81.3C2,119.44.33,163,0,204.37c-.23,31.07,2.4,56.73,8.06,78.46,7.19,27.62,19.75,50.2,37.34,67.11,28,26.88,66.83,39.25,118.83,37.84q3.06-.09,6.16-.23c42.83-2,76-15.9,98.48-41.25C306,304.49,301.91,246.93,299.19,208.84Zm-134,26.45-2.66-48a1.93,1.93,0,0,1,1.93-1.92l110.5.39a1.92,1.92,0,0,1,1.36,3.28l-47.39,47.87a2,2,0,0,1-1.37.57l-60.45-.22A1.93,1.93,0,0,1,165.14,235.29ZM256.75,59.85c18.43,24.89,23,52.46,24.08,66.35a1.93,1.93,0,0,1-1.95,2.07l-48.43-.56a1.91,1.91,0,0,1-1.88-1.65c-1.16-8.36-4.26-21.88-12.5-33.85a1.94,1.94,0,0,1,.36-2.62L254,59.5A1.93,1.93,0,0,1,256.75,59.85ZM165.84,15.47a1.93,1.93,0,0,1,2.08-1.89c31.83,2.64,57.88,13.81,77.63,33.34h0a1.9,1.9,0,0,1-.16,2.84l-38,30.42a1.94,1.94,0,0,1-2.43,0c-9.8-7.94-22.65-12.81-38.37-14.57a1.93,1.93,0,0,1-1.73-1.95Zm-18.6-2.42c1.24,0,2.47-.06,3.69-.07a1.93,1.93,0,0,1,1.94,2L151.93,63A1.93,1.93,0,0,1,150,64.89l-1.38,0c-19,.52-34.2,4.44-46.07,12.07a1.94,1.94,0,0,1-2.49-.31L67.65,40.85A1.94,1.94,0,0,1,67.91,38C88.78,22.4,115.48,13.91,147.24,13.05ZM30.43,86.55A122.45,122.45,0,0,1,55.05,49.29a1.92,1.92,0,0,1,2.8.06L90.17,85a1.93,1.93,0,0,1,0,2.59,69.42,69.42,0,0,0-10,14.87c-4.38,8.64-7.7,18.85-10.11,31.6a1.92,1.92,0,0,1-2.31,1.53l-47-10.34A1.94,1.94,0,0,1,19.29,123,181.41,181.41,0,0,1,30.43,86.55ZM18.85,138.14,66.1,148.55a1.92,1.92,0,0,1,1.5,2.1c-1.47,12.85-2.31,27.87-2.62,45.69a1.93,1.93,0,0,1-1.7,1.89L15.17,204A1.93,1.93,0,0,1,13,202.11c.18-20.66.78-41.82,3.51-62.34A1.94,1.94,0,0,1,18.85,138.14Zm1.77,141.42c-4.46-17.14-6.94-37-7.52-60.44a2,2,0,0,1,1.7-2l47.93-5.78a1.93,1.93,0,0,1,2.16,1.9c.25,20.74,2.09,37.84,5.57,51.85a1.92,1.92,0,0,1-1.09,2.23L24.91,286.74a1.93,1.93,0,0,1-2.62-1.2C21.7,283.58,21.15,281.58,20.62,279.56Zm33.78,61c-10.94-10.53-19.76-23.59-26.33-39a1.94,1.94,0,0,1,1-2.52l44-19.19a1.94,1.94,0,0,1,2.55,1,65.17,65.17,0,0,0,14.74,22.26,58.59,58.59,0,0,0,14.9,10.31,1.94,1.94,0,0,1,.89,2.63L83.91,358.77a1.93,1.93,0,0,1-2.57.84A110.27,110.27,0,0,1,54.4,340.59Zm115.39,34c-28.18,1.32-52.29-1.42-72.65-8.37a1.93,1.93,0,0,1-1.07-2.71l22.63-43.39a1.89,1.89,0,0,1,2.18-1c12.8,3.27,28.23,4.46,46.47,3.61h.17a1.93,1.93,0,0,1,2,1.67l6.29,47.75a1.94,1.94,0,0,1-1.78,2.18C172.64,374.44,171.22,374.52,169.79,374.59Zm89.39-36.91c-16.33,18.39-39.22,30-68.24,34.75a1.94,1.94,0,0,1-2.22-1.66l-6.28-47.65A1.94,1.94,0,0,1,184,321c16.2-2.85,28.41-8.8,36.34-17.74.49-.55,1-1.12,1.44-1.7a1.91,1.91,0,0,1,2.46-.45l41.78,24.27a1.92,1.92,0,0,1,.63,2.74A97.56,97.56,0,0,1,259.18,337.68Zm13.27-23.62-41.83-24.3a1.93,1.93,0,0,1-.82-2.38c3.87-10,5.87-22.68,6.14-38.44a2,2,0,0,1,.55-1.32l45.95-46.41a1.93,1.93,0,0,1,3.29,1.22l.52,7.33h0c2.05,28.7,4.94,69.13-11.08,103.46A1.94,1.94,0,0,1,272.45,314.06Z"/></g></g></svg>
