<svg width="135" height="84" viewBox="0 0 135 84" fill="none" xmlns="http://www.w3.org/2000/svg">
<path d="M8 0H127L135 84L67 65L0 84L8 0Z" fill="white"/>
<path d="M20.8696 36.2L24.7735 34.3L25.6744 36.1L24.9737 36.5L26.1749 39C26.4752 39.6 26.275 40.2 25.6744 40.5L21.3701 42.6C20.8696 42.9 20.1689 42.7 19.8686 42.1L16.5652 35.5C16.2649 35 16.5652 34.3 17.0657 34L22.3711 31.4L23.272 33.2L19.268 35.2C19.1679 35.2 19.1679 35.3 19.1679 35.4L21.4702 40C21.5703 40 21.6704 40 21.7705 40L23.5723 39.1C23.6724 39.1 23.6724 39 23.6724 38.9L22.9717 37.5L21.7705 38L20.8696 36.2Z" fill="black"/>
<path d="M35.7845 36.6L33.4822 37.4L32.6814 35.1L30.5793 35.8L31.3801 38.1L29.0778 38.9L26.3751 30.9C26.1749 30.3 26.4752 29.7 27.0758 29.5L31.6804 27.9C32.281 27.7 32.8816 28 33.0818 28.6L35.7845 36.6ZM32.0808 33.1L31.1799 30.4C31.0798 30.2 30.9797 30.2 30.7795 30.2L29.3781 30.7C29.1779 30.8 29.1779 30.9 29.1779 31.1L30.0788 33.8L32.0808 33.1Z" fill="black"/>
<path d="M39.1879 30.3L40.289 35.4L38.0868 35.9L36.0848 26.6L38.287 26.1L42.1909 30.6L41.0898 25.5L43.292 25L45.294 34.3L42.9917 34.8L39.1879 30.3Z" fill="black"/>
<path d="M49.7985 26.2L46.3951 26.6L46.0948 24.5L52.5012 23.7L52.8015 25.7L49.8986 31.6L53.7024 31.1L54.0027 33.2L47.1959 34L46.8956 32L49.7985 26.2Z" fill="black"/>
<path d="M55.2039 23.5L61.4101 23.1L61.5102 25.2L57.7064 25.4L57.8065 27.1L61.1098 26.9L61.2099 28.9L57.9066 29.1L58.0067 30.8L61.8105 30.6L61.9106 32.7L55.7044 33L55.2039 23.5Z" fill="black"/>
<path d="M66.5152 27.3L66.4151 32.6H64.1128L64.313 23H66.6153L69.4181 28.3L69.5182 23H71.8205L71.7204 32.6H69.4181L66.5152 27.3Z" fill="black"/>
<path d="M74.1228 30.7L77.7265 31C77.8266 31 77.9267 31 77.9267 30.9L78.0268 29.5C78.0268 29.4 78.0268 29.4 77.9267 29.4L75.4242 29.2C74.7234 29.2 74.3231 28.7 74.4231 28L74.7234 24.4C74.7234 23.7 75.224 23.3 75.9247 23.4L80.8296 23.8L80.6294 25.8L77.226 25.5C77.1259 25.5 77.1259 25.6 77.0258 25.6L76.9257 27C76.9257 27.1 76.9257 27.1 77.0258 27.1L79.5283 27.3C80.229 27.3 80.6294 27.8 80.5293 28.5L80.229 32.1C80.229 32.8 79.7285 33.2 79.0278 33.1L73.9226 32.7L74.1228 30.7Z" fill="black"/>
<path d="M89.6384 24.8C90.239 24.9 90.6394 25.4 90.5393 26L89.8386 30.9C89.7385 31.5 89.1379 31.9 88.6374 31.8L85.234 31.3L84.8336 33.8L82.4312 33.4L83.8326 24L89.6384 24.8ZM87.4362 29.6C87.5363 29.6 87.5363 29.5 87.5363 29.5L87.9367 26.8C87.9367 26.7 87.9367 26.7 87.8366 26.6L85.9347 26.3L85.5343 29.3L87.4362 29.6Z" fill="black"/>
<path d="M99.1479 27C99.7485 27.2 100.149 27.7 99.9487 28.4L98.1469 35.5C97.9467 36.1 97.4462 36.5 96.7455 36.3L91.9407 35.1C91.3401 34.9 90.9397 34.4 91.1399 33.7L92.9417 26.6C93.1419 26 93.6424 25.6 94.3431 25.8L99.1479 27ZM97.3461 28.8C97.3461 28.7 97.3461 28.6 97.246 28.6L95.3441 28.1C95.244 28.1 95.244 28.1 95.1439 28.2L93.9427 33.2C93.9427 33.3 93.9427 33.3 94.0428 33.4L95.9447 33.9C96.0448 33.9 96.1449 33.9 96.1449 33.8L97.3461 28.8Z" fill="black"/>
<path d="M109.158 30.3C109.658 30.5 109.959 31.1 109.758 31.7L108.257 35.8C108.057 36.3 107.456 36.6 106.856 36.4H106.756V39.7L104.453 38.9L104.553 35.6L103.552 35.2L102.551 38.1L100.249 37.2L103.552 28.2L109.158 30.3ZM107.156 31.9C107.156 31.8 107.156 31.7 107.056 31.7L105.154 31L104.253 33.4L106.155 34.1C106.255 34.1 106.255 34.1 106.355 34L107.156 31.9Z" fill="black"/>
<path d="M118.567 34.9L117.566 36.7L115.664 35.7L112.261 42.4L110.059 41.3L113.462 34.6L111.56 33.6L112.561 31.8L118.567 34.9Z" fill="black"/>
<path d="M36.3851 47.1H37.8866C37.9867 47.1 37.9867 47.1 37.9867 47V45C37.9867 44.9 37.9867 44.9 37.8866 44.9H37.1859C36.6854 44.9 36.3851 44.6 36.3851 44.1V41.3C36.3851 40.8 36.6854 40.5 37.1859 40.5H39.1879V41.6H37.7865L37.6864 41.7V43.6C37.6864 43.6 37.6864 43.7 37.7865 43.7H38.4872C38.9877 43.7 39.288 44 39.288 44.5V47.4C39.288 47.9 38.9877 48.2 38.4872 48.2H36.3851V47.1Z" fill="black"/>
<path d="M41.6904 48.2H40.3891V40.5H42.9917C43.5923 40.5 43.8926 40.9 43.8926 41.4V45.1C43.8926 45.7 43.4922 46 42.9917 46H41.6904V48.2ZM42.5913 45L42.6914 44.9V41.7C42.6914 41.6 42.6914 41.6 42.5913 41.6H41.6904V45H42.5913Z" fill="black"/>
<path d="M47.8966 40.5C48.3971 40.5 48.6974 40.8 48.6974 41.3V47.5C48.6974 48 48.3971 48.3 47.8966 48.3H45.8946C45.3941 48.3 45.0938 48 45.0938 47.5V41.3C45.0938 40.8 45.3941 40.5 45.8946 40.5H47.8966ZM47.3961 41.7C47.3961 41.6 47.3961 41.6 47.296 41.6H46.4952C46.3951 41.6 46.3951 41.7 46.3951 41.7V47.1C46.3951 47.1 46.3951 47.2 46.4952 47.2H47.296C47.296 47.2 47.3961 47.2 47.3961 47.1V41.7Z" fill="black"/>
<path d="M51.8005 45.6H51.4001V48.2H50.0988V40.5H52.7014C53.302 40.5 53.6023 40.9 53.6023 41.4V44.6C53.6023 45 53.4021 45.4 53.0017 45.5L53.6023 48.1H52.301L51.8005 45.6ZM52.4011 41.8C52.4011 41.7 52.4011 41.7 52.301 41.7H51.4001V44.6H52.301L52.4011 44.5V41.8Z" fill="black"/>
<path d="M56.7054 41.6V48.2H55.4041V41.6H54.4031V40.5H57.6063V41.6H56.7054Z" fill="black"/>
<path d="M58.307 47.1H59.8085C59.9086 47.1 59.9086 47.1 59.9086 47V45C59.9086 44.9 59.9086 44.9 59.8085 44.9H59.1078C58.6073 44.9 58.307 44.6 58.307 44.1V41.3C58.307 40.8 58.6073 40.5 59.1078 40.5H61.1098V41.6H59.7084L59.6083 41.7V43.6C59.6083 43.6 59.6083 43.7 59.7084 43.7H60.4091C60.9096 43.7 61.2099 44 61.2099 44.5V47.4C61.2099 47.9 60.9096 48.2 60.4091 48.2H58.307V47.1Z" fill="black"/>
<path d="M65.2139 48.2C64.7134 48.2 64.313 47.8 64.313 47.3V41.4C64.313 40.9 64.7134 40.5 65.2139 40.5H70.7194C71.2199 40.5 71.6203 40.9 71.6203 41.4V45.2C71.6203 45.7 71.2199 46.1 70.7194 46.1H68.4171V45H67.5162V46.1H66.5152V42.8C66.5152 42.5 66.7154 42.3 67.0157 42.3H69.0177C69.318 42.3 69.5182 42.5 69.5182 42.8V45.2H70.4191C70.5192 45.2 70.6193 45.1 70.6193 45V41.8C70.6193 41.7 70.5192 41.6 70.4191 41.6H65.8177C65.7176 41.6 65.7176 41.7 65.7176 41.8L65.7144 46.9C65.7144 47 65.8145 47 65.8145 47H71.8205V48.2H68.5172H65.2139ZM68.4171 44.2V43.3C68.4171 43.2 68.317 43.2 68.317 43.2H67.7164C67.6163 43.2 67.6163 43.3 67.6163 43.3V44.2H68.4171Z" fill="black"/>
<path d="M75.2239 48.2V40.5H76.5253V43.9H77.5263V40.5H78.8276V48.2H77.5263V45H76.5253V48.2H75.2239Z" fill="black"/>
<path d="M83.4322 40.5C83.9327 40.5 84.233 40.8 84.233 41.3V47.5C84.233 48 83.9327 48.3 83.4322 48.3H81.4302C80.9297 48.3 80.6294 48 80.6294 47.5V41.3C80.6294 40.8 80.9297 40.5 81.4302 40.5H83.4322ZM82.9317 41.7C82.9317 41.6 82.9317 41.6 82.8316 41.6H82.0308C81.9307 41.6 81.9307 41.7 81.9307 41.7V47.1C81.9307 47.1 81.9307 47.2 82.0308 47.2H82.8316C82.8316 47.2 82.9317 47.2 82.9317 47.1V41.7Z" fill="black"/>
<path d="M87.3361 43.7V48.2H86.235V40.5H87.3361L88.4372 44.1L89.4382 40.5H90.5393V48.2H89.3381V43.7L88.5373 46.1H88.1369L87.3361 43.7Z" fill="black"/>
<path d="M92.5413 40.5H95.3441V41.6H93.8426V43.8H95.1439V44.9H93.8426V47.1H95.3441V48.2H92.5413V40.5Z" fill="black"/>
</svg>
